# xmcd
#
# Track frame offsets: 
#        150
#        17844
#        33874
#        55484
#        68623
#        82324
#        99587
#        115278
#
# Disc length: 1752 seconds
#
# Revision: 0
# Processed by: cddbd v1.5.2PL0 Copyright (c) Steve Scherf et al.
# Submitted via: ExactAudioCopy v0.99pb4
#
DISCID=6706d608
DTITLE=Ralph"Soul"Jackson - The Alabama Soul Man
DYEAR=2012
DGENRE=Soul
TTITLE0=I Can't Leave Your Love Alone
TTITLE1=You've Been Very Good To Me
TTITLE2=Searching
TTITLE3=For Just One Second
TTITLE4=Vehicle
TTITLE5=Somewhere In This World
TTITLE6=There Must Be A Reason
TTITLE7=I'll Take Care of You
EXTD=
EXTT0=
EXTT1=
EXTT2=
EXTT3=
EXTT4=
EXTT5=
EXTT6=
EXTT7=
PLAYORDER=
